PathFileType	4	(X/Y/Z)	/Users/gattia/Dropbox/phd_data/bike_study/processing_scripts/../mocap_collections/p017/static_002_dig-bike_study_lower_sept.17.2019_static_func_knee_and_ankle/marker_data.trc
DataRate	CameraRate	NumFrames	NumMarkers	Units	OrigDataRate	OrigDataStartFrame	OrigNumFrames
112.5	112.5	4	107	mm	112.5	212	339
Frame#	Time	Head_Front			Head_R			Head_L			Head_back			Head_top			Arm_R_1			Arm_R_2			Arm_R_3			Arm_R_4			Elbow_R_Lat			Elbow_R_Med			Forearm_R_1			Forearm_R_2			Forearm_R_3			Forearm_R_4			Rad_styl_R			Ul_styl_R			Dig_R_1			Dig_R_3			Dig_R_5			Arm_L_1			Arm_L_2			Arm_L_3			Arm_L_4			Elbow_L_Lat			Elbow_L_Med			Forearm_L_1			Forearm_L_2			Forearm_L_3			Forearm_L_4			Rad_styl_L			Ul_styl_L			Dig_L_1			Dig_L_3			Dig_L_5			xiphoid			sternal_notch			Acr_R			Acr_L			C7			T8			ASIS_R			ASIS_L			PSIS_R			PSIS_L			GT_R			Thigh_R_1			Thigh_R_2			Thigh_R_3			Thigh_R_4			Knee_R_L_Cond			Knee_R_M_Cond			GT_L			Thigh_L_1			Thigh_L_2			Thigh_L_3			Thigh_L_4			Knee_L_L_Cond			Knee_L_M_Cond			Tib_Tib_R			Shank_R_1			Shank_R_2			Shank_R_3			Shank_R_4			Ankle_R_L_Mal			Ankle_R_M_Mal			Tib_Tub_L			Shank_L_1			Shank_L_2			Shank_L_3			Shank_L_4			Ankle_L_L_Mal			Ankle_L_M_Mal			Foot_R_MH_1_Top			Foot_R_MH_5_Top			Foot_R_Calc			Foot_R_Center			Foot_L_MH_1_Top			Foot_L_MH_5_Top			Foot_L_Calc			Foot_L_Center			right_hjc			left_hjc			mid_hjc			mid_pelvis			mid_asis			mid_psis			right_kjc			left_kjc			right_ajc			left_ajc			right_met_1_floor			left_met_1_floor			right_met_5_floor			left_met_5_floor			right_calc_floor			left_calc_floor			right_mid_met_floor			left_mid_met_floor			right_ajc_floor			left_ajc_floor			right_sjc			left_sjc			right_ejc			left_ejc			right_wjc			left_wjc			
		X1	Y1	Z1	X2	Y2	Z2	X3	Y3	Z3	X4	Y4	Z4	X5	Y5	Z5	X6	Y6	Z6	X7	Y7	Z7	X8	Y8	Z8	X9	Y9	Z9	X10	Y10	Z10	X11	Y11	Z11	X12	Y12	Z12	X13	Y13	Z13	X14	Y14	Z14	X15	Y15	Z15	X16	Y16	Z16	X17	Y17	Z17	X18	Y18	Z18	X19	Y19	Z19	X20	Y20	Z20	X21	Y21	Z21	X22	Y22	Z22	X23	Y23	Z23	X24	Y24	Z24	X25	Y25	Z25	X26	Y26	Z26	X27	Y27	Z27	X28	Y28	Z28	X29	Y29	Z29	X30	Y30	Z30	X31	Y31	Z31	X32	Y32	Z32	X33	Y33	Z33	X34	Y34	Z34	X35	Y35	Z35	X36	Y36	Z36	X37	Y37	Z37	X38	Y38	Z38	X39	Y39	Z39	X40	Y40	Z40	X41	Y41	Z41	X42	Y42	Z42	X43	Y43	Z43	X44	Y44	Z44	X45	Y45	Z45	X46	Y46	Z46	X47	Y47	Z47	X48	Y48	Z48	X49	Y49	Z49	X50	Y50	Z50	X51	Y51	Z51	X52	Y52	Z52	X53	Y53	Z53	X54	Y54	Z54	X55	Y55	Z55	X56	Y56	Z56	X57	Y57	Z57	X58	Y58	Z58	X59	Y59	Z59	X60	Y60	Z60	X61	Y61	Z61	X62	Y62	Z62	X63	Y63	Z63	X64	Y64	Z64	X65	Y65	Z65	X66	Y66	Z66	X67	Y67	Z67	X68	Y68	Z68	X69	Y69	Z69	X70	Y70	Z70	X71	Y71	Z71	X72	Y72	Z72	X73	Y73	Z73	X74	Y74	Z74	X75	Y75	Z75	X76	Y76	Z76	X77	Y77	Z77	X78	Y78	Z78	X79	Y79	Z79	X80	Y80	Z80	X81	Y81	Z81	X82	Y82	Z82	X83	Y83	Z83	X84	Y84	Z84	X85	Y85	Z85	X86	Y86	Z86	X87	Y87	Z87	X88	Y88	Z88	X89	Y89	Z89	X90	Y90	Z90	X91	Y91	Z91	X92	Y92	Z92	X93	Y93	Z93	X94	Y94	Z94	X95	Y95	Z95	X96	Y96	Z96	X97	Y97	Z97	X98	Y98	Z98	X99	Y99	Z99	X100	Y100	Z100	X101	Y101	Z101	X102	Y102	Z102	X103	Y103	Z103	X104	Y104	Z104	X105	Y105	Z105	X106	Y106	Z106	X107	Y107	Z107	

212	  1.875556	346.499155	1787.418175	318.797904	157.481015	1757.696855	373.037707	241.057113	1755.180277	179.381561	106.028533	1694.767845	266.107729	219.472935	1857.722119	284.822212	108.018257	1329.187835	513.582298	114.891765	1352.001675	548.236932	113.801463	1328.746021	563.895466	106.785104	1305.010125	529.031009	105.671182	1238.829149	597.445281	179.066925	1212.252523	563.602175	106.792125	1141.770413	699.155408	142.781245	1117.195292	677.052539	147.274297	1103.094617	700.887858	110.890384	1126.909712	721.819477	162.145312	1129.331213	825.125488	128.430623	1066.623229	792.351280	176.790407	1128.573206	890.274582	113.396382	1061.888800	890.386569	123.029061	1026.373709	860.391677	187.761937	1339.312966	-36.880244	150.669495	1333.797438	-18.114960	148.308968	1309.473850	-30.964215	184.854260	1314.529904	-50.569668	142.507361	1228.227789	-59.424269	191.943364	1196.046681	 -5.793900	158.374579	1169.165742	-170.911069	168.796843	1128.565538	-145.384752	177.082040	1115.783057	-169.025234	166.948674	1156.265810	-194.210230	239.048775	1145.419234	-286.853847	207.675227	1078.318442	-258.353234	287.520762	1136.240665	-350.051784	221.814828	1075.015723	-374.117975	225.304567	1034.876800	-346.997922	314.745392	1295.695632	278.544894	275.924615	1491.703040	279.586758	158.857437	1535.203570	443.613951	198.504217	1527.648624	 77.389724	137.993477	1554.648845	275.251813	 93.513384	1362.796518	272.602584	278.346971	1032.504697	416.236668	291.673158	1024.937327	146.030692	 98.939678	1066.882030	323.575933	103.164135	1072.337793	203.355634	205.005203	950.637694	464.762249	185.327881	779.251825	470.918747	227.966262	776.514127	475.590300	225.976263	746.109484	475.180008	183.237325	747.587647	471.084050	193.763602	521.974770	440.352554	229.894479	496.074613	349.696856	207.151925	923.423024	 89.417898	240.015565	784.059072	 84.704804	197.681854	779.880050	 86.367986	200.688388	748.737016	 85.983496	243.230822	752.615797	 84.135466	221.061480	512.109658	128.572983	240.184400	493.572375	224.936547	223.738853	447.683635	402.294252	105.338082	422.743562	442.043199	144.784011	413.445582	457.541207	137.230651	383.828872	458.699760	 97.477160	393.250762	443.560550	109.221958	126.657026	427.064948	146.605801	131.587802	347.425621	238.318401	441.949208	176.156686	157.301858	423.714193	110.887991	117.369643	430.734221	127.522754	111.153149	401.347277	126.090978	149.911510	394.247426	108.527043	116.724087	121.398662	143.979768	156.304712	124.387306	218.442256	276.129775	 57.410854	391.331325	215.738845	 51.438676	488.361716	 62.240724	 68.772109	357.665917	155.896813	 61.173335	460.670931	301.615665	 52.655957	164.182597	242.088097	 49.944732	 63.167305	 81.288768	 64.737750	209.154817	169.076805	 64.120737	 99.344368	218.726398	961.864991	367.410695	227.522400	956.870118	189.060174	223.124399	959.367554	278.235434	193.030985	1049.165462	272.299732	285.010064	1028.721012	281.133680	101.051906	1069.609912	263.465784	201.235897	510.359247	395.024705	208.558261	492.783705	176.754765	127.913879	129.122414	387.245284	136.514399	122.892984	181.211012	276.129775	  0.000000	391.331325	301.615665	  0.000000	164.182597	215.738845	  0.000000	488.361716	242.088097	  0.000000	 63.167305	 62.240724	  0.000000	357.665917	 81.288768	  0.000000	209.154817	245.934310	  0.000000	439.846521	271.851881	  0.000000	113.674951	127.913879	  0.000000	387.245284	136.514399	  0.000000	181.211012	158.857437	1466.203570	443.613951	198.504217	1458.648624	 77.389724	142.369053	1225.540836	580.523728	167.225363	1212.137235	-32.609085	145.287968	1097.977221	808.738384	223.362001	1111.868838	-272.603541
213	  1.884444	346.467610	1787.428975	318.806497	157.445467	1757.698186	373.026262	241.042350	1755.177136	179.380707	106.007240	1694.759830	266.094943	219.439160	1857.724390	284.815130	108.008086	1329.210375	513.583778	114.879159	1352.026156	548.237692	113.788428	1328.770889	563.898029	106.772845	1305.034716	529.034363	105.653898	1238.856665	597.452803	179.052006	1212.275375	563.613896	106.768545	1141.801014	699.165520	142.760367	1117.224036	677.067518	147.252101	1103.124348	700.901760	110.867066	1126.940758	721.831763	162.122338	1129.363325	825.137458	128.400995	1066.657602	792.367468	176.769215	1128.606163	890.286284	113.368889	1061.925681	890.403429	122.998159	1026.410441	860.407812	187.828348	1339.345853	-36.899751	150.732678	1333.829625	-18.142715	148.374205	1309.505350	-30.991127	184.923118	1314.562881	-50.590142	142.576995	1228.261280	-59.457249	192.004980	1196.078006	 -5.817695	158.462460	1169.201537	-170.941694	168.886228	1128.598719	-145.411032	177.170265	1115.818881	-169.053130	167.038491	1156.298326	-194.242867	239.155313	1145.456542	-286.872840	207.776456	1078.355950	-258.377679	287.622736	1136.282954	-350.063631	221.934548	1075.054807	-374.140002	225.415481	1034.917006	-347.017993	314.771341	1295.727692	278.547471	275.945532	1491.731534	279.593262	158.857717	1535.213435	443.609609	198.538155	1527.667405	 77.402760	137.984478	1554.650029	275.241482	 93.508074	1362.795030	272.580402	278.351235	1032.508697	416.232388	291.693979	1024.961833	146.035056	 98.942572	1066.884943	323.576135	103.166013	1072.337974	203.355273	205.009086	950.639719	464.761807	185.332821	779.252961	470.921069	227.971690	776.515820	475.592917	225.981427	746.110655	475.182602	183.242479	747.589203	471.087464	193.768519	521.974717	440.352531	229.901702	496.074822	349.699037	207.155310	923.423445	 89.419982	240.022200	784.059203	 84.707152	197.688820	779.879200	 86.370797	200.696338	748.736018	 85.986197	243.238398	752.616048	 84.138236	221.067507	512.109475	128.574798	240.190808	493.573218	224.938405	223.746028	447.682656	402.294357	105.342153	422.744416	442.045904	144.788607	413.445701	457.543395	137.234321	383.829117	458.700814	 97.481055	393.251619	443.563260	109.222135	126.657233	427.065544	146.607276	131.587924	347.426989	238.322562	441.948796	176.158477	157.306313	423.713186	110.890433	117.374152	430.733545	127.525214	111.157809	401.346591	126.094170	149.911006	394.238722	108.540509	116.725212	121.398010	143.982309	156.305464	124.387634	218.443895	276.129956	 57.410161	391.332380	215.738770	 51.438746	488.362924	 62.240656	 68.772140	357.667190	155.896535	 61.173328	460.671609	301.616590	 52.655947	164.183867	242.089085	 49.944158	 63.168587	 81.287378	 64.735462	209.156562	169.077697	 64.120321	 99.346813	218.738282	961.870116	367.401142	227.545213	956.888778	189.056326	223.141747	959.379447	278.228734	193.038450	1049.173362	272.299713	285.022607	1028.735265	281.133722	101.054293	1069.611458	263.465704	201.242111	510.360153	395.025784	208.564480	492.784005	176.756602	127.914705	129.122578	387.246267	136.515338	122.892822	181.213102	276.129956	  0.000000	391.332380	301.616590	  0.000000	164.183867	215.738770	  0.000000	488.362924	242.089085	  0.000000	 63.168587	 62.240656	  0.000000	357.667190	 81.287378	  0.000000	209.156562	245.934363	  0.000000	439.847652	271.852838	  0.000000	113.676227	127.914705	  0.000000	387.246267	136.515338	  0.000000	181.213102	158.857717	1466.213435	443.609609	198.538155	1458.667405	 77.402760	142.352952	1225.566020	580.533349	167.290988	1212.169643	-32.637472	145.261666	1098.010463	808.752463	223.465885	1111.906246	-272.625260
214	  1.893333	346.439188	1787.439549	318.813916	157.414523	1757.698251	373.017809	241.027282	1755.174861	179.380697	105.988090	1694.751472	266.084989	219.407514	1857.726269	284.810243	107.997894	1329.232950	513.583714	114.866866	1352.050217	548.237284	113.775403	1328.795221	563.899146	106.760333	1305.058906	529.035865	105.635831	1238.883416	597.458708	179.035816	1212.296970	563.623492	106.744430	1141.830547	699.174077	142.738904	1117.251607	677.081023	147.229072	1103.152549	700.913946	110.843252	1126.970614	721.842261	162.099775	1129.393988	825.147242	128.371355	1066.690427	792.381723	176.749240	1128.638100	890.295609	113.342561	1061.961066	890.418272	122.968276	1026.445212	860.422184	187.896192	1339.378446	-36.919528	150.796835	1333.861913	-18.171089	148.440516	1309.537127	-31.019252	184.993549	1314.595644	-50.611158	142.646801	1228.295329	-59.491086	192.065899	1196.108897	 -5.841592	158.550817	1169.237611	-170.972970	168.979810	1128.632699	-145.434462	177.258292	1115.854265	-169.081269	167.128672	1156.330698	-194.276199	239.263267	1145.493087	-286.891430	207.877188	1078.393387	-258.402785	287.729149	1136.322818	-350.074469	222.055198	1075.094538	-374.162317	225.526064	1034.956921	-347.038586	314.796086	1295.758418	278.551228	275.966989	1491.759040	279.599638	158.858905	1535.224578	443.605199	198.577957	1527.688868	 77.409832	137.976755	1554.651972	275.231324	 93.494958	1362.792702	272.554621	278.355561	1032.512735	416.228467	291.712100	1024.983656	146.039587	 98.944626	1066.887462	323.577262	103.166624	1072.338060	203.355747	205.013418	950.641756	464.761758	185.339436	779.254195	470.924255	227.978701	776.517762	475.596436	225.988276	746.112153	475.186297	183.249324	747.590724	471.091610	193.774946	521.974859	440.352905	229.909874	496.075144	349.701984	207.157329	923.423614	 89.422637	240.028800	784.059247	 84.710349	197.695673	779.877978	 86.374368	200.704603	748.734665	 85.989854	243.246094	752.616215	 84.142007	221.072868	512.109425	128.577243	240.197521	493.574179	224.940788	223.754722	447.681697	402.294646	105.347305	422.745372	442.048536	144.794352	413.445783	457.545667	137.239091	383.829375	458.701786	 97.486001	393.252521	443.565911	109.222709	126.657409	427.066124	146.608880	131.587935	347.428427	238.326495	441.948432	176.160618	157.310022	423.712139	110.893257	117.378120	430.732841	127.528145	111.161910	401.345761	126.097810	149.910525	394.230809	108.553161	116.726504	121.397055	143.985077	156.306652	124.387739	218.445624	276.130391	 57.409401	391.333571	215.739014	 51.438898	488.364034	 62.240773	 68.772094	357.668419	155.896708	 61.173297	460.672055	301.617805	 52.655870	164.185109	242.089986	 49.943431	 63.170017	 81.285125	 64.731383	209.158105	169.078682	 64.119609	 99.349445	218.749271	961.875189	367.393011	227.565307	956.905591	189.053773	223.157289	959.390390	278.223392	193.044728	1049.180478	272.300266	285.033830	1028.748196	281.134027	101.055625	1069.612761	263.466504	201.249528	510.361106	395.027445	208.570336	492.784250	176.759015	127.915794	129.122672	387.247276	136.516578	122.892397	181.215350	276.130391	  0.000000	391.333571	301.617805	  0.000000	164.185109	215.739014	  0.000000	488.364034	242.089986	  0.000000	 63.170017	 62.240773	  0.000000	357.668419	 81.285125	  0.000000	209.158105	245.934703	  0.000000	439.848803	271.853896	  0.000000	113.677563	127.915794	  0.000000	387.247276	136.516578	  0.000000	181.215350	158.858905	1466.224578	443.605199	198.577957	1458.688868	 77.409832	142.335824	1225.590193	580.541100	167.356350	1212.202113	-32.666339	145.235565	1098.042208	808.764483	223.570227	1111.943237	-272.647108
215	  1.902222	346.414062	1787.449502	318.820332	157.388221	1757.697277	373.012095	241.012300	1755.173576	179.381420	105.971268	1694.743219	266.077434	219.378476	1857.727840	284.807468	107.987714	1329.255573	513.582374	114.855136	1352.073874	548.235878	113.762702	1328.819086	563.898967	106.747824	1305.082600	529.035760	105.617560	1238.909383	597.462819	179.019000	1212.317629	563.630944	106.720398	1141.858936	699.180891	142.717259	1117.278139	677.092452	147.206074	1103.179432	700.924481	110.819379	1126.999280	721.850610	162.077196	1129.423423	825.155071	128.342372	1066.721584	792.393621	176.729070	1128.669134	890.303086	113.316700	1061.994693	890.430414	122.939485	1026.477889	860.434228	187.965200	1339.410435	-36.939516	150.861745	1333.894159	-18.199952	148.507622	1309.569106	-31.048612	185.065187	1314.627896	-50.632579	142.716403	1228.329750	-59.525589	192.125543	1196.139202	 -5.865452	158.639406	1169.273583	-171.004834	169.076061	1128.667503	-145.455786	177.345954	1115.889046	-169.109533	167.219191	1156.362966	-194.310014	239.372684	1145.528954	-286.909286	207.977605	1078.430712	-258.428334	287.840994	1136.360347	-350.083648	222.177742	1075.134818	-374.184792	225.637954	1034.996312	-347.059654	314.819794	1295.788091	278.556598	275.988782	1491.785528	279.605690	158.860538	1535.237388	443.600586	198.625598	1527.714343	 77.407770	137.970201	1554.654682	275.221149	 93.472205	1362.789029	272.524143	278.360011	1032.516849	416.224815	291.726188	1025.001903	146.044242	 98.946040	1066.889755	323.579134	103.166237	1072.338289	203.356864	205.018057	950.643797	464.761912	185.347565	779.255662	470.927919	227.987053	776.519989	475.600437	225.996714	746.114051	475.190631	183.257632	747.592230	471.096092	193.782761	521.975299	440.353723	229.918536	496.075634	349.705380	207.157967	923.423693	 89.425586	240.034857	784.059220	 84.714036	197.701900	779.876508	 86.378262	200.712479	748.733135	 85.994082	243.253240	752.616275	 84.146411	221.076932	512.109492	128.580017	240.203749	493.575170	224.943402	223.764354	447.680870	402.295097	105.353353	422.746434	442.050848	144.801001	413.445842	457.547811	137.244824	383.829647	458.702493	 97.491851	393.253469	443.568231	109.223718	126.657596	427.066588	146.610502	131.587883	347.429801	238.329667	441.948070	176.162808	157.312552	423.711148	110.896155	117.381097	430.732201	127.531226	111.164945	401.344838	126.101561	149.910092	394.224536	108.563642	116.727883	121.395896	143.987706	156.308244	124.387560	218.447189	276.131190	 57.408765	391.334676	215.739644	 51.439115	488.364873	 62.241135	 68.771996	357.669468	155.897389	 61.173288	460.672203	301.619192	 52.655701	164.186061	242.090739	 49.942588	 63.171416	 81.282120	 64.725633	209.159179	169.079684	 64.118635	 99.351912	218.759038	961.880373	367.386535	227.581436	956.920103	189.052779	223.170237	959.400238	278.219657	193.049619	1049.186699	272.301264	285.043099	1028.759376	281.134528	101.056138	1069.614022	263.467999	201.257834	510.362133	395.029551	208.575127	492.784503	176.761709	127.917110	129.122739	387.248195	136.518064	122.891728	181.217447	276.131190	  0.000000	391.334676	301.619192	  0.000000	164.186061	215.739644	  0.000000	488.364873	242.090739	  0.000000	 63.171416	 62.241135	  0.000000	357.669468	 81.282120	  0.000000	209.159179	245.935417	  0.000000	439.849775	271.854965	  0.000000	113.678739	127.917110	  0.000000	387.248195	136.518064	  0.000000	181.217447	158.860538	1466.237388	443.600586	198.625598	1458.714343	 77.407770	142.318280	1225.613506	580.546882	167.420973	1212.234476	-32.695520	145.209784	1098.072504	808.774346	223.675145	1111.979833	-272.668810
